<svg width="20" height="20" viewBox="0 0 20 20" fill="none" xmlns="http://www.w3.org/2000/svg">
    <path d="m15.794 8.17-.404-.981s.939-2.165.855-2.25l-1.242-1.242c-.088-.084-2.206.902-2.206.902l-.976-.405S10.958 2 10.84 2H9.084c-.122 0-.921 2.203-.921 2.203l-.977.404s-2.164-.94-2.248-.855L3.696 4.994c-.084.085.901 2.207.901 2.207l-.404.977S2 9.042 2 9.16v1.756c0 .122 2.202.922 2.202.922l.404.978s-.94 2.164-.86 2.248l1.243 1.243c.084.084 2.205-.906 2.205-.906l.981.405S9.038 18 9.16 18h1.755c.123 0 .922-2.203.922-2.203l.981-.404s2.16.94 2.244.86l1.242-1.243c.084-.085-.905-2.207-.905-2.207l.404-.977S18 10.958 18 10.84V9.084c0-.122-2.197-.918-2.197-.918l-.009.004zm-3.237 1.836a2.566 2.566 0 0 1-2.563 2.565 2.566 2.566 0 0 1-2.564-2.565 2.565 2.565 0 0 1 2.564-2.56 2.565 2.565 0 0 1 2.563 2.56z" stroke="#000" stroke-miterlimit="10" stroke-linejoin="round"/>
</svg>
